<svg xmlns="http://www.w3.org/2000/svg" xmlns:xlink="http://www.w3.org/1999/xlink" width="1700" zoomAndPan="magnify" viewBox="0 0 1350 576" height="768" preserveAspectRatio="xMidYMid meet" version="1.0"><defs><clipPath id="88280995c8"><path d="M 0 269.25 L 1350 269.25 L 1350 576 L 0 576 Z M 0 269.25 " clip-rule="nonzero"/></clipPath></defs><rect x="-135" width="1620" fill="#ffffff" y="-57.6" height="691.2" fill-opacity="1"/><rect x="-135" width="1620" fill="#ffffff" y="-57.6" height="691.2" fill-opacity="1"/><rect x="-135" width="1620" fill="#cf9378" y="-57.6" height="691.2" fill-opacity="1"/><g clip-path="url(#88280995c8)"><path fill="#f89f7b" d="M 1413.945312 766.777344 L 1413.945312 429.453125 C 1392.21875 457.429688 1362.003906 480.527344 1328.867188 472.859375 C 1310.898438 468.695312 1296.257812 455.992188 1282.980469 443.210938 C 1245.734375 407.332031 1212.539062 367.136719 1172.433594 334.488281 C 1132.328125 301.84375 1083.167969 276.609375 1031.457031 277.875 C 979.046875 279.15625 931.078125 307.195312 889.472656 339.082031 C 847.867188 370.96875 809.414062 407.820312 762.789062 431.769531 C 700.933594 463.539062 626.5625 470.058594 560.113281 449.53125 C 452.628906 416.339844 374.265625 319.257812 267.050781 285.226562 C 230.175781 273.535156 191.179688 269.78125 152.492188 269.9375 C 121.945312 270.050781 90.679688 272.757812 62.820312 285.265625 C 29.9375 300.035156 4.472656 327.175781 -25.199219 347.640625 C -36.84375 355.675781 -50.003906 362.664062 -63.632812 367.253906 L -63.632812 766.796875 L 1413.945312 766.796875 Z M 1413.945312 766.777344 " fill-opacity="1" fill-rule="nonzero"/></g><path fill="#fcca87" d="M 1287.496094 584.535156 C 1259.617188 597.046875 1228.367188 599.75 1197.820312 599.867188 C 1159.136719 600.023438 1120.140625 596.289062 1083.265625 584.574219 C 976.050781 550.546875 897.6875 453.460938 790.199219 420.269531 C 723.753906 399.746094 649.378906 406.28125 587.527344 438.035156 C 540.898438 461.984375 502.449219 498.832031 460.84375 530.722656 C 419.238281 562.609375 371.265625 590.644531 318.855469 591.929688 C 267.144531 593.195312 217.988281 567.980469 177.882812 535.3125 C 137.773438 502.667969 104.582031 462.46875 67.335938 426.59375 C 54.058594 413.792969 39.417969 401.085938 21.449219 396.945312 C -11.6875 389.277344 -41.902344 412.371094 -63.632812 440.347656 L -63.632812 766.777344 L 1413.925781 766.777344 L 1413.925781 502.570312 C 1400.296875 507.160156 1387.136719 514.144531 1375.496094 522.179688 C 1345.84375 542.648438 1320.378906 569.769531 1287.496094 584.535156 Z M 1287.496094 584.535156 " fill-opacity="1" fill-rule="nonzero"/></svg>