<svg xmlns="http://www.w3.org/2000/svg" xmlns:xlink="http://www.w3.org/1999/xlink" width="1000" zoomAndPan="magnify" viewBox="0 0 1024.5 576" height="768" preserveAspectRatio="xMidYMid meet" version="1.0"><defs><clipPath id="8e5e35198e"><path d="M 0 0.140625 L 1024 0.140625 L 1024 575.859375 L 0 575.859375 Z M 0 0.140625 " clip-rule="nonzero"/></clipPath><clipPath id="2a71e99a1e"><path d="M 0 403.367188 L 1024 403.367188 L 1024 575.859375 L 0 575.859375 Z M 0 403.367188 " clip-rule="nonzero"/></clipPath><clipPath id="a49a67c6f3"><path d="M 0 490 L 1024 490 L 1024 575.859375 L 0 575.859375 Z M 0 490 " clip-rule="nonzero"/></clipPath></defs><g clip-path="url(#8e5e35198e)"><path fill="#ffffff" d="M 0 0.140625 L 1024.5 0.140625 L 1024.5 583.640625 L 0 583.640625 Z M 0 0.140625 " fill-opacity="1" fill-rule="nonzero"/><path fill="#ffffff" d="M 0 0.140625 L 1024.5 0.140625 L 1024.5 576.140625 L 0 576.140625 Z M 0 0.140625 " fill-opacity="1" fill-rule="nonzero"/><path fill="#cf9378" d="M 0 0.140625 L 1024.5 0.140625 L 1024.5 576.140625 L 0 576.140625 Z M 0 0.140625 " fill-opacity="1" fill-rule="nonzero"/></g><g clip-path="url(#2a71e99a1e)"><path fill="#f89f7b" d="M 1024.59375 748.792969 L 1024.59375 514.589844 C 1009.527344 534.015625 988.578125 550.046875 965.601562 544.726562 C 953.140625 541.835938 942.988281 533.015625 933.78125 524.140625 C 907.957031 499.230469 884.9375 471.324219 857.128906 448.65625 C 829.320312 425.992188 795.234375 408.472656 759.378906 409.347656 C 723.035156 410.242188 689.773438 429.707031 660.921875 451.84375 C 632.074219 473.984375 605.410156 499.570312 573.078125 516.199219 C 530.191406 538.257812 478.621094 542.78125 432.546875 528.53125 C 358.015625 505.484375 303.679688 438.082031 229.335938 414.453125 C 203.765625 406.335938 176.726562 403.730469 149.902344 403.835938 C 128.71875 403.917969 107.039062 405.796875 87.722656 414.480469 C 64.921875 424.734375 47.261719 443.578125 26.6875 457.789062 C 18.617188 463.367188 9.488281 468.21875 0.0390625 471.40625 L 0.0390625 748.804688 L 1024.59375 748.804688 Z M 1024.59375 748.792969 " fill-opacity="1" fill-rule="nonzero"/></g><g clip-path="url(#a49a67c6f3)"><path fill="#fcca87" d="M 936.914062 622.261719 C 917.582031 630.949219 895.914062 632.824219 874.734375 632.90625 C 847.910156 633.015625 820.867188 630.421875 795.300781 622.289062 C 720.957031 598.664062 666.621094 531.257812 592.085938 508.214844 C 546.011719 493.964844 494.445312 498.503906 451.554688 520.546875 C 419.222656 537.175781 392.5625 562.761719 363.710938 584.898438 C 334.863281 607.039062 301.597656 626.503906 265.257812 627.394531 C 229.402344 628.273438 195.316406 610.765625 167.503906 588.085938 C 139.695312 565.421875 116.679688 537.511719 90.855469 512.605469 C 81.648438 503.714844 71.496094 494.894531 59.035156 492.019531 C 36.058594 486.695312 15.105469 502.730469 0.0390625 522.15625 L 0.0390625 748.792969 L 1024.582031 748.792969 L 1024.582031 565.351562 C 1015.132812 568.542969 1006.003906 573.390625 997.933594 578.96875 C 977.371094 593.179688 959.714844 612.011719 936.914062 622.261719 Z M 936.914062 622.261719 " fill-opacity="1" fill-rule="nonzero"/></g></svg>